<?xml version="1.0" encoding="UTF-8"?>
<!DOCTYPE svg PUBLIC "-//W3C//DTD SVG 1.1//EN" "http://www.w3.org/Graphics/SVG/1.1/DTD/svg11.dtd">
<!-- Creator: CorelDRAW 2018 (64 Bit Versión de evaluación) -->
<svg xmlns="http://www.w3.org/2000/svg" xml:space="preserve" width="0.52677cm" height="0.52678cm" version="1.1" style="shape-rendering:geometricPrecision; text-rendering:geometricPrecision; image-rendering:optimizeQuality; fill-rule:evenodd; clip-rule:evenodd"
viewBox="0 0 4.09 4.09"
 xmlns:xlink="http://www.w3.org/1999/xlink">
 <defs>
  <style type="text/css">
   <![CDATA[
    .fil0 {fill:#666666}
	.fil1 {fill:#1C70F6}
   ]]>

  </style>
 </defs>
 <g id="Capa_x0020_1">
  <metadata id="CorelCorpID_0Corel-Layer"/>
  <path class="fil0" d="M3 2.64c0.2,-0.27 0.32,-0.61 0.32,-0.98 0,-0.92 -0.75,-1.66 -1.66,-1.66 -0.92,0 -1.66,0.75 -1.66,1.66 0,0.92 0.75,1.66 1.66,1.66 0.37,0 0.7,-0.12 0.98,-0.32l1.09 1.09 0.36 -0.36c0,-0 -1.09,-1.09 -1.09,-1.09zm-1.34 0.17c-0.63,0 -1.15,-0.52 -1.15,-1.15 0,-0.63 0.52,-1.15 1.15,-1.15 0.63,0 1.15,0.52 1.15,1.15 0,0.63 -0.52,1.15 -1.15,1.15z"/>
 </g>
  <g id="Capa_x0020_2">
  <metadata id="CorelCorpID_0Corel-Layer"/>
  <path class="fil1" d="M3 2.64c0.2,-0.27 0.32,-0.61 0.32,-0.98 0,-0.92 -0.75,-1.66 -1.66,-1.66 -0.92,0 -1.66,0.75 -1.66,1.66 0,0.92 0.75,1.66 1.66,1.66 0.37,0 0.7,-0.12 0.98,-0.32l1.09 1.09 0.36 -0.36c0,-0 -1.09,-1.09 -1.09,-1.09zm-1.34 0.17c-0.63,0 -1.15,-0.52 -1.15,-1.15 0,-0.63 0.52,-1.15 1.15,-1.15 0.63,0 1.15,0.52 1.15,1.15 0,0.63 -0.52,1.15 -1.15,1.15z"/>
 </g>
</svg>
